#!OML:ASF Y:\EmotionMaleHayes\Project 1\Capture day 1\Session 1\Male1.ASF
:FULLY-SPECIFIED
:DEGREES
142
root -24.0979 15.4418 1.55567 -76.4826 78.0213 -85.9114
lowerback 17.6454 3.15599 7.29773
upperback 5.96459 5.79655 1.54632
thorax -2.88704 3.05503 -3.58941
lowerneck -18.7788 0.527823 2.99413
upperneck 14.2228 0.849206 -4.96988
head 7.49124 0.0944386 -2.02958
rclavicle -7.05686e-015 2.34566e-014
rhumerus -23.2902 40.0055 -89.9062
rradius 69.2501
rwrist -3.77243
rhand -11.6656 -26.4304
rfingers 7.12502
rthumb 14.3792 -55.9124
lclavicle -7.05686e-015 2.34566e-014
lhumerus -68.8393 -20.1593 101.753
lradius 43.7825
lwrist 1.76678
lhand -1.29827 -19.5157
lfingers 7.12502
lthumb 24.3463 8.95793
rfemur 19.7749 -3.10662 27.0324
rtibia 4.37161
rfoot -33.3979 -6.09918
rtoes -25.3025
lfemur -52.1177 12.0994 -1.93766
ltibia 52.0502
lfoot -16.661 -0.144249
ltoes -6.51918
143
root -23.8994 15.3977 1.53377 -76.0376 78.4531 -85.3606
lowerback 17.6911 3.18474 6.6817
upperback 6.04098 5.70506 1.1008
thorax -2.85467 3.01173 -3.70182
lowerneck -18.8454 0.522855 2.7627
upperneck 13.9792 0.796502 -4.46316
head 7.41643 0.104142 -1.82802
rclavicle 2.06736e-014 1.19271e-014
rhumerus -23.8518 39.6283 -90.4384
rradius 70.2116
rwrist -4.50015
rhand -12.803 -25.6322
rfingers 7.12502
rthumb 13.2831 -55.1889
lclavicle 2.06736e-014 1.19271e-014
lhumerus -69.6307 -20.8379 101.873
lradius 43.9852
lwrist 2.12069
lhand -0.722494 -19.233
lfingers 7.12502
lthumb 24.8982 9.16534
rfemur 20.5227 -1.82588 27.0298
rtibia 4.81208
rfoot -33.3353 -7.04517
rtoes -26.1441
lfemur -51.6338 11.6105 -2.41666
ltibia 52.8221
lfoot -16.8051 -0.310264
ltoes -6.17592
144
root -23.6959 15.3617 1.51177 -74.1157 79.4065 -83.3526
lowerback 17.5819 3.27296 5.25626
upperback 6.20694 5.54527 0.657659
thorax -2.7339 2.93336 -3.33276
lowerneck -19.1049 0.560805 2.324
upperneck 13.7914 0.872837 -4.02467
head 7.3975 0.156022 -1.60191
rclavicle -9.14409e-015 2.8625e-014
rhumerus -24.3997 39.3188 -90.7796
rradius 71.2647
rwrist -4.96238
rhand -13.3204 -25.599
rfingers 7.12502
rthumb 12.7843 -55.1876
lclavicle -9.14409e-015 2.8625e-014
lhumerus -70.0208 -21.5628 102.182
lradius 44.0253
lwrist 2.8928
lhand 0.0584597 -18.7272
lfingers 7.12502
lthumb 25.6464 9.56549
rfemur 21.2406 -0.384278 26.3983
rtibia 5.23192
rfoot -33.2256 -7.81996
rtoes -26.2929
lfemur -51.0032 11.1056 -3.53588
ltibia 53.2535
lfoot -16.7433 0.0787435
ltoes -6.34337
145
root -23.4923 15.3295 1.48708 -71.2342 80.3363 -80.6167
lowerback 17.5745 3.51078 4.11866
upperback 6.04527 5.62111 -0.0336758
thorax -2.93521 2.95145 -3.44912
lowerneck -19.2055 0.446025 2.17453
upperneck 13.7038 0.640558 -3.42494
head 7.3742 0.0930785 -1.40648
rclavicle 2.46493e-014 -1.27222e-014
rhumerus -25.8 37.9741 -91.7197
rradius 72.5311
rwrist -5.25165
rhand -13.6274 -25.7651
rfingers 7.12502
rthumb 12.4883 -55.3719
lclavicle 2.46493e-014 -1.27222e-014
lhumerus -70.8824 -22.749 102.377
lradius 44.13
lwrist 3.04571
lhand 0.721037 -18.4893
lfingers 7.12502
lthumb 26.2808 9.71037
rfemur 21.5354 0.937967 25.7113
rtibia 5.86141
rfoot -32.9785 -8.70007
rtoes -27.2187
lfemur -50.6801 10.9755 -4.78583
ltibia 53.7198
lfoot -16.1791 1.0934
ltoes -10.5067
146
root -23.2685 15.3086 1.44529 -70.1471 81.4952 -79.4869
lowerback 17.4912 3.53175 3.15222
upperback 6.06295 5.45237 -0.742526
thorax -2.90634 2.86922 -3.61791
lowerneck -19.388 0.363465 1.89273
upperneck 13.634 0.486668 -2.80937
head 7.37444 0.0619146 -1.17569
rclavicle -6.95746e-014 3.73715e-014
rhumerus -26.8509 36.7076 -92.5535
rradius 73.2625
rwrist -5.97695
rhand -14.2513 -25.4748
rfingers 7.12502
rthumb 11.8868 -55.1174
lclavicle -6.95746e-014 3.73715e-014
lhumerus -71.3403 -23.7745 102.446
lradius 44.018
lwrist 2.86968
lhand 1.29256 -18.439
lfingers 7.12502
lthumb 26.8278 9.67792
rfemur 22.0022 1.17524 24.4062
rtibia 6.73002
rfoot -32.3924 -9.05109
rtoes -28.1668
lfemur -50.0811 10.3092 -6.34269
ltibia 54.0674
lfoot -16.0815 2.18874
ltoes -12.8017
147
root -23.0562 15.2972 1.41047 -67.6787 82.508 -77.0707
lowerback 17.4236 3.60156 2.17742
upperback 6.09828 5.35666 -1.42378
thorax -2.86254 2.82531 -3.76605
lowerneck -19.7016 0.265459 1.91061
upperneck 13.3383 0.317039 -2.70133
head 7.32482 -0.00992479 -1.16225
rclavicle -1.19271e-015 3.65764e-014
rhumerus -27.6108 35.3195 -93.3219
rradius 73.5825
rwrist -6.84621
rhand -14.8449 -25.1472
rfingers 7.12502
rthumb 11.3144 -54.8221
lclavicle -1.19271e-015 3.65764e-014
lhumerus -71.3988 -24.9026 102.423
lradius 43.7262
lwrist 2.6556
lhand 1.64789 -18.5367
lfingers 7.12502
lthumb 27.1678 9.52763
rfemur 21.9828 1.75382 23.4021
rtibia 8.22954
rfoot -31.7458 -9.60002
rtoes -27.8483
lfemur -49.6285 9.79147 -7.69078
ltibia 54.7031
lfoot -16.6442 3.0102
ltoes -14.1795
